<svg width="443" height="348" viewBox="0 0 443 348" fill="none" xmlns="http://www.w3.org/2000/svg">
<path d="M3.21258 154.593L3.16975 154.844L3.16975 155.098L3.16975 341.286L3.16975 344.286L6.16975 344.286L436.166 344.286L439.166 344.286L439.166 341.286L439.166 19.6465L439.166 17.9229L437.677 17.0548C409.176 0.440142 378.217 -0.213713 347.904 12.9852C317.717 26.1291 288.244 52.9578 262.168 91.2262C250.992 105.901 241.933 115.177 233.947 120.164C226.132 125.045 219.46 125.762 212.646 123.421C205.551 120.984 198.002 115.138 188.875 106.065C181.883 99.1154 174.184 90.5052 165.222 80.4837C162.529 77.4711 159.721 74.331 156.784 71.0701L156.69 70.9657L156.586 70.8706C139.485 55.1296 124.009 41.8682 109.916 32.7602C95.8727 23.685 82.7725 18.4454 70.5084 19.3998C58.0361 20.3705 47.1699 27.6691 37.5257 41.9301C27.9282 56.1218 19.3235 77.4992 11.2936 107.36L11.2571 107.496L11.2335 107.634L3.21258 154.593Z" fill="#FFF2D8" stroke="white" stroke-width="6"/>
</svg>
